<?xml version="1.0" standalone="no"?>
<!DOCTYPE svg PUBLIC "-//W3C//DTD SVG 20010904//EN"
 "http://www.w3.org/TR/2001/REC-SVG-20010904/DTD/svg10.dtd">
<svg version="1.0" xmlns="http://www.w3.org/2000/svg"
 width="1200.000000pt" height="1200.000000pt" viewBox="0 0 1200.000000 1200.000000"
 preserveAspectRatio="xMidYMid meet">
<metadata>
Created by potrace 1.14, written by Peter Selinger 2001-2017
</metadata>
<g transform="translate(0.000000,1200.000000) scale(0.100000,-0.100000)"
fill="#000000" stroke="none">
<path d="M2840 11893 c-1 -100 -2 -126 -11 -223 -2 -19 1 -42 5 -49 6 -9 5
-12 -1 -8 -9 6 -19 -52 -29 -168 -1 -11 -3 -24 -4 -30 -1 -5 -2 -13 -1 -17 6
-45 -179 -714 -220 -793 -5 -12 -12 -30 -14 -40 -2 -11 -4 -21 -5 -22 -2 -2
-3 -6 -4 -10 -20 -76 -89 -260 -212 -556 -13 -32 -24 -63 -24 -68 0 -5 -8 -28
-19 -52 -10 -23 -29 -67 -41 -97 -12 -30 -32 -77 -45 -105 -12 -27 -41 -95
-65 -150 -23 -55 -46 -107 -51 -115 -5 -8 -12 -22 -15 -30 -3 -8 -11 -26 -17
-40 -6 -14 -11 -28 -13 -32 -1 -5 -2 -9 -4 -10 -1 -2 -3 -10 -5 -18 -1 -8 -25
-64 -53 -125 -27 -60 -70 -155 -95 -210 -24 -55 -55 -122 -67 -149 -12 -27
-23 -56 -25 -65 -3 -14 -54 -131 -134 -306 -15 -33 -41 -94 -59 -135 -17 -41
-80 -192 -140 -335 -145 -341 -143 -338 -146 -350 -1 -5 -10 -27 -19 -49 -9
-21 -17 -45 -17 -53 0 -8 -6 -26 -14 -41 -19 -37 -170 -434 -191 -502 -9 -30
-19 -62 -22 -70 -4 -8 -5 -18 -5 -22 1 -5 -3 -8 -9 -8 -5 0 -8 -4 -5 -8 3 -4
-15 -67 -39 -139 -97 -287 -196 -636 -210 -743 -1 -14 -19 -101 -38 -195 -39
-186 -37 -173 -67 -396 -46 -345 -45 -680 1 -999 10 -74 21 -151 24 -170 3
-19 24 -111 46 -205 22 -93 42 -179 44 -190 1 -11 3 -20 4 -20 2 0 4 -7 6 -15
17 -86 111 -336 189 -502 25 -54 43 -98 40 -98 -3 0 0 -6 5 -13 6 -6 40 -70
76 -142 37 -71 72 -137 79 -145 21 -24 106 -170 106 -180 0 -6 5 -10 10 -10 6
0 10 -7 10 -15 0 -8 5 -15 10 -15 6 0 10 -5 10 -11 0 -20 267 -370 393 -514
125 -142 452 -459 563 -545 11 -8 44 -36 74 -61 80 -66 238 -183 370 -274 63
-43 117 -81 120 -85 3 -4 61 -39 130 -79 130 -75 181 -94 196 -70 11 17 14 79
4 79 -4 0 -7 6 -7 13 0 15 -23 86 -123 387 -43 129 -88 269 -100 310 -37 124
-44 145 -55 152 -5 4 -7 8 -2 8 13 0 -105 207 -132 230 -9 7 -27 38 -57 95
-15 28 -32 53 -38 57 -6 4 -7 8 -3 8 5 0 0 12 -11 28 -35 50 -200 368 -207
397 -1 5 -8 24 -15 40 -7 17 -13 33 -12 38 1 4 -2 7 -8 7 -6 0 -9 3 -8 8 2 4
-5 25 -14 47 -74 174 -172 471 -182 549 -3 20 -8 42 -13 48 -4 7 -7 24 -7 39
-1 15 -4 30 -8 34 -4 4 -4 13 -1 21 3 8 0 14 -7 14 -6 0 -9 4 -6 9 4 5 2 31
-4 58 -5 26 -12 64 -15 83 -2 19 -7 46 -9 60 -50 281 -51 828 -2 1085 2 11 7
43 10 70 4 28 9 66 13 85 3 19 7 44 7 55 1 11 5 26 9 33 5 6 6 16 2 21 -3 5
-1 12 4 16 5 3 10 13 10 23 0 9 2 31 6 47 3 17 6 37 6 45 3 55 133 463 207
651 6 15 8 30 5 33 -4 3 -2 6 4 6 6 0 13 14 17 31 16 82 274 614 406 838 49
84 90 155 90 157 0 3 38 65 85 139 47 74 85 139 85 145 0 5 4 10 9 10 5 0 31
35 56 78 26 42 87 131 135 197 48 66 100 140 116 165 28 44 83 120 94 130 4 3
65 84 136 180 115 154 164 213 164 198 0 -7 -38 -80 -65 -123 -14 -22 -44 -74
-67 -115 -23 -41 -56 -99 -75 -128 -18 -29 -33 -59 -33 -67 0 -8 -5 -15 -11
-15 -6 0 -8 -7 -5 -16 3 -8 2 -12 -4 -9 -6 3 -10 1 -10 -5 0 -7 -49 -112 -109
-233 -127 -258 -151 -313 -143 -321 3 -3 0 -6 -7 -6 -7 0 -9 -4 -6 -10 3 -5 1
-10 -5 -10 -6 0 -9 -4 -5 -9 3 -5 -8 -38 -24 -73 -55 -118 -176 -448 -165
-448 3 0 -3 -11 -12 -25 -9 -14 -14 -32 -10 -40 3 -9 2 -14 -3 -11 -8 5 -13
-11 -24 -74 -2 -9 -6 -21 -11 -28 -4 -6 -5 -12 -2 -12 2 0 0 -15 -5 -32 -14
-46 -87 -336 -94 -373 -3 -16 -8 -46 -11 -65 -2 -19 -11 -69 -19 -110 -29
-157 -38 -250 -50 -526 -9 -188 -2 -254 24 -254 18 0 56 65 46 80 -3 4 0 10 5
12 6 2 12 10 14 18 6 37 33 104 87 215 55 114 75 151 147 273 17 28 28 52 24
52 -4 0 -2 4 4 8 6 4 18 21 27 39 9 17 22 37 29 45 7 7 38 49 67 93 30 44 59
82 63 83 4 2 8 8 8 13 0 5 7 17 15 26 8 10 46 59 86 108 39 50 83 102 98 116
14 14 51 55 81 90 30 35 123 131 205 212 134 133 176 172 251 234 12 10 52 46
90 80 95 84 176 149 324 258 52 38 97 73 98 77 2 5 10 8 18 8 8 0 14 4 14 8 0
5 19 19 43 32 23 13 94 59 157 101 152 101 250 160 250 151 0 -4 4 -2 8 4 4 5
34 25 67 44 33 18 76 42 95 53 19 10 78 43 130 72 52 30 102 55 110 57 8 2 17
6 20 9 12 14 534 268 541 263 5 -3 9 0 9 6 0 6 5 8 10 5 6 -3 10 -1 10 6 0 7
3 10 6 7 5 -5 45 12 239 102 172 79 220 100 345 147 52 19 113 45 135 56 36
18 74 51 76 66 0 3 2 17 5 30 2 13 -5 42 -16 64 -17 32 -232 331 -249 347 -3
3 -10 12 -16 21 -12 21 -129 172 -147 190 -7 8 -56 66 -107 129 -52 63 -114
135 -137 160 -23 25 -52 56 -63 70 -58 68 -124 141 -201 221 -47 48 -108 112
-136 141 -28 29 -80 81 -115 115 -35 35 -84 83 -109 108 -25 26 -74 72 -109
103 -35 31 -89 82 -120 112 -32 30 -88 82 -126 115 -38 33 -77 68 -87 78 -10
9 -20 17 -22 17 -2 0 -19 15 -38 33 -45 44 -114 104 -174 152 -27 22 -54 44
-60 50 -6 5 -33 28 -60 50 -26 22 -55 47 -64 55 -9 8 -45 37 -81 65 -35 27
-66 52 -69 55 -3 3 -34 28 -70 55 -36 28 -75 60 -87 72 -12 13 -26 23 -32 23
-5 0 -11 3 -13 8 -3 7 -48 45 -96 80 -13 9 -32 25 -42 34 -10 9 -21 14 -24 10
-3 -3 -6 0 -6 6 0 7 -6 12 -13 12 -8 0 -22 10 -33 21 -10 12 -66 57 -124 100
-58 43 -111 83 -117 89 -7 6 -13 8 -13 5 0 -3 -6 -1 -12 5 -50 42 -76 61 -178
134 -63 45 -177 127 -253 181 -76 55 -155 111 -175 124 -20 13 -42 30 -49 37
-7 7 -22 16 -33 19 -11 3 -20 11 -20 17 0 6 -3 8 -6 5 -4 -3 -18 3 -32 13 -22
18 -41 20 -193 20 l-169 0 0 -107z"/>
<path d="M10907 10020 c-15 -5 -70 -49 -122 -99 -161 -153 -257 -233 -401
-332 -171 -117 -254 -169 -352 -221 -43 -22 -138 -73 -212 -113 -121 -66 -242
-125 -325 -160 -30 -13 -54 -24 -245 -112 -141 -66 -255 -113 -292 -122 -7 -2
-103 -42 -143 -61 -83 -38 -419 -174 -470 -190 -22 -7 -46 -17 -52 -23 -7 -5
-13 -7 -13 -4 0 3 -33 -9 -72 -25 -295 -121 -448 -182 -478 -191 -19 -6 -37
-11 -40 -12 -3 -1 -14 -5 -25 -10 -11 -4 -81 -33 -155 -63 -74 -30 -200 -81
-279 -113 -80 -33 -149 -59 -153 -59 -5 0 -27 -8 -51 -19 -23 -10 -64 -28 -92
-39 -27 -11 -117 -50 -200 -87 -82 -37 -172 -76 -200 -87 -27 -10 -64 -26 -82
-33 -17 -8 -33 -15 -36 -15 -3 0 -92 -42 -199 -93 -106 -51 -209 -100 -228
-108 -50 -20 -293 -145 -370 -189 -36 -21 -98 -54 -137 -74 -82 -41 -251 -140
-333 -196 -30 -21 -71 -46 -90 -56 -57 -31 -307 -205 -420 -292 -196 -153
-453 -400 -624 -602 -118 -139 -308 -410 -383 -546 -71 -131 -233 -455 -231
-463 1 -3 -8 -33 -21 -66 -110 -283 -224 -688 -245 -870 -3 -22 -8 -56 -11
-75 -8 -47 -15 -118 -16 -157 0 -18 -3 -33 -7 -33 -4 0 -7 -24 -7 -52 -1 -29
-6 -141 -13 -248 -7 -107 -10 -278 -7 -380 5 -174 13 -335 16 -335 1 0 3 -20
3 -45 1 -25 5 -51 9 -57 4 -6 7 -24 7 -40 0 -54 6 -128 13 -148 3 -11 9 -49
12 -85 15 -151 105 -543 185 -801 28 -90 63 -202 77 -249 14 -47 63 -197 108
-335 45 -137 85 -263 89 -280 9 -40 25 -59 66 -82 28 -16 40 -18 59 -9 l24 10
-8 156 c-4 85 -9 196 -11 245 -8 143 -8 608 -1 745 14 266 37 486 73 705 8 50
21 120 29 156 8 36 17 88 20 115 4 26 8 51 10 54 4 7 6 17 36 190 50 297 172
629 329 900 93 162 292 454 437 645 59 77 285 325 340 372 26 23 75 67 108 98
33 32 76 69 95 83 19 15 37 29 40 33 3 3 32 25 65 49 33 24 69 53 80 63 54 52
479 317 605 379 263 128 515 240 580 259 25 7 50 16 55 20 6 4 22 10 35 13 14
3 77 24 140 47 147 52 451 147 487 150 15 2 33 7 40 12 7 5 17 6 22 3 5 -4 12
-2 16 3 3 6 12 8 20 4 8 -3 15 0 15 5 0 6 8 10 18 10 9 0 71 12 137 27 66 15
170 38 230 51 163 36 649 123 682 123 15 -1 51 4 78 10 28 7 79 14 115 17 35
3 67 7 72 10 4 3 42 7 85 10 43 2 146 11 228 19 378 37 561 46 972 46 365 0
580 -9 883 -37 167 -15 462 -50 513 -60 l28 -6 0 119 c0 65 -1 125 -1 133 -1
8 -3 47 -4 85 -2 39 -9 145 -16 238 -6 92 -12 202 -14 245 -1 42 -5 83 -10 91
-7 10 -6 12 4 6 10 -6 11 -4 5 11 -5 10 -10 39 -12 64 -5 63 -12 158 -17 205
-2 22 -7 67 -10 100 -2 33 -7 74 -10 90 -2 17 -8 64 -11 105 -4 41 -9 82 -10
91 -2 9 -6 40 -10 70 -14 118 -66 476 -100 684 -20 121 -38 234 -40 250 -1 17
-5 37 -8 45 -6 18 -26 132 -31 175 -2 17 -6 41 -10 55 -3 14 -8 43 -10 65 -3
22 -5 40 -7 40 -1 0 -3 14 -5 30 -10 108 -63 342 -85 380 -25 43 -72 60 -122
45z"/>
<path d="M9300 6529 c-258 -16 -515 -42 -535 -55 -11 -7 -90 -31 -175 -53
-244 -64 -710 -228 -925 -326 -146 -66 -429 -208 -494 -247 -34 -21 -65 -38
-68 -38 -4 0 -144 -86 -275 -169 -110 -69 -354 -249 -483 -356 -134 -110 -435
-391 -435 -405 0 -4 15 -10 33 -13 65 -10 105 -19 233 -52 144 -37 330 -91
345 -100 5 -4 17 -8 26 -10 28 -6 175 -55 187 -63 6 -3 16 -7 23 -8 17 -3 291
-113 347 -140 28 -13 56 -24 63 -24 7 0 13 -4 13 -10 0 -5 6 -10 13 -10 7 0
32 -9 55 -20 22 -11 45 -20 51 -20 5 0 11 -3 13 -8 2 -4 35 -23 73 -41 39 -19
81 -42 95 -51 14 -10 29 -18 33 -18 9 0 308 -171 317 -181 6 -8 40 -29 60 -38
8 -4 24 -15 34 -25 11 -10 24 -18 29 -18 5 0 26 -13 47 -30 21 -16 42 -30 48
-30 6 0 12 -3 14 -8 2 -4 28 -25 58 -46 66 -48 203 -149 210 -156 4 -5 70 -59
133 -110 10 -8 31 -25 45 -37 15 -13 31 -23 35 -23 5 0 5 -4 2 -10 -3 -5 -2
-10 3 -10 5 0 29 -17 53 -37 65 -57 377 -371 434 -438 28 -32 57 -66 65 -75 8
-8 31 -36 50 -60 19 -25 44 -55 55 -67 25 -27 29 -32 88 -113 27 -36 53 -72
60 -80 38 -49 67 -89 67 -95 0 -3 6 -13 13 -21 6 -8 17 -20 22 -27 6 -7 16
-24 24 -40 8 -15 18 -27 23 -27 4 0 8 -7 8 -15 0 -8 5 -15 10 -15 6 0 10 -4
10 -9 0 -5 33 -62 73 -128 59 -94 168 -292 218 -393 4 -8 18 -36 30 -63 13
-26 29 -46 35 -45 15 4 129 137 264 308 181 228 454 696 565 969 25 62 52 125
59 140 37 72 151 400 204 586 123 428 208 842 242 1185 11 107 22 213 25 235
8 74 34 429 40 555 10 195 5 634 -6 641 -26 15 -555 71 -856 89 -194 11 -933
11 -1123 -1z"/>
<path d="M5733 4736 c-154 -160 -440 -540 -541 -717 -11 -19 -48 -83 -82 -144
-219 -384 -401 -862 -480 -1259 -68 -344 -89 -533 -95 -831 -5 -300 18 -547
80 -860 19 -93 39 -188 45 -210 30 -107 96 -298 127 -367 32 -70 43 -83 124
-148 129 -105 127 -104 434 -105 143 -1 292 2 330 6 39 4 115 10 170 13 140 9
208 15 375 32 243 25 310 34 445 58 72 14 148 27 170 31 79 13 473 108 630
152 425 119 852 295 1191 489 61 35 114 64 118 64 11 0 408 266 436 292 14 13
43 37 65 53 125 93 472 413 497 459 6 11 6 21 1 25 -5 3 -15 22 -23 41 -7 19
-19 42 -27 51 -7 9 -16 26 -18 39 -2 12 -8 27 -14 34 -5 6 -29 49 -53 96 -25
47 -53 99 -64 117 -123 205 -146 241 -205 330 -43 63 -137 194 -156 218 -5 6
-40 51 -78 100 -191 247 -489 556 -744 772 -14 12 -33 29 -41 36 -8 7 -67 54
-130 103 -63 49 -116 92 -118 97 -2 4 -10 7 -17 7 -7 0 -15 4 -17 8 -1 5 -46
37 -98 73 -52 35 -100 69 -106 74 -6 6 -27 19 -47 30 -20 11 -37 23 -37 27 0
5 -4 8 -9 8 -6 0 -53 27 -106 60 -53 33 -100 60 -104 60 -5 0 -14 7 -21 15 -7
8 -16 13 -20 10 -5 -3 -10 -2 -12 2 -7 17 -388 209 -543 275 -212 90 -524 205
-605 223 -8 2 -28 8 -45 15 -16 6 -32 11 -35 11 -3 0 -28 7 -56 15 -28 8 -60
16 -70 19 -11 2 -44 11 -76 19 -31 8 -67 17 -80 20 -12 2 -60 13 -105 24 l-83
19 -77 -81z"/>
</g>
</svg>
